<svg xmlns="http://www.w3.org/2000/svg" xmlns:xlink="http://www.w3.org/1999/xlink" width="41" height="48" viewBox="0 0 41 48">
    <defs>
        <path id="a" d="M25 1h2v46h-2z"/>
    </defs>
    <g fill="none" fill-rule="evenodd">
        <path fill="#C5CBD1" d="M1.708 31.154L20.5 41.167l18.792-10.013V11.847L20.5 1.833 1.708 11.847v19.307zM20.5 43a.847.847 0 0 1-.4-.1L.456 32.432a.861.861 0 0 1-.455-.76V11.328c0-.319.175-.611.455-.76L20.1.1a.847.847 0 0 1 .799 0L40.545 10.57c.28.149.455.441.455.76V31.67a.861.861 0 0 1-.455.76L20.9 42.902a.847.847 0 0 1-.4.099z"/>
        <path fill="#C5CBD1" d="M20.5 23a.805.805 0 0 1-.399-.107L.456 11.728A.925.925 0 0 1 0 10.951a.937.937 0 0 1 .4-.81.804.804 0 0 1 .854-.034L20.5 21.045l19.246-10.938c.417-.236.933-.065 1.154.382.22.448.061 1.002-.355 1.24L20.9 22.892a.805.805 0 0 1-.4.107"/>
        <g transform="rotate(17 26 24)">
            <use fill="#C5CBD1" xlink:href="#a"/>
            <path stroke="#FFF" d="M24.5.5h3v47h-3z"/>
        </g>
    </g>
</svg>
