<svg xmlns="http://www.w3.org/2000/svg" xmlns:xlink="http://www.w3.org/1999/xlink" width="44" height="44" viewBox="0 0 44 44">
    <defs>
        <path id="a" d="M0 0h44v44H0z"/>
    </defs>
    <g fill="none" fill-rule="evenodd">
        <mask id="b" fill="#fff">
            <use xlink:href="#a"/>
        </mask>
        <path fill="#C5CBD1" d="M40.436 14.83A19.669 19.669 0 0 1 41.8 22c0 10.918-8.882 19.8-19.8 19.8-10.918 0-19.8-8.882-19.8-19.8C2.2 11.082 11.082 2.2 22 2.2c5.95 0 11.282 2.65 14.915 6.819l1.562-1.562C34.447 2.894 28.567 0 22 0 9.85 0 0 9.85 0 22s9.85 22 22 22 22-9.85 22-22c0-3.155-.676-6.148-1.872-8.86l-1.692 1.69" mask="url(#b)"/>
        <path fill="#50E3C2" d="M22.467 28c-.29 0-.58-.107-.802-.322l-11.333-11a1.077 1.077 0 0 1 0-1.556c.443-.43 1.16-.43 1.603 0l10.532 10.223L42.065 6.322c.443-.43 1.16-.43 1.603 0 .443.43.443 1.126 0 1.556l-20.4 19.8c-.22.214-.51.322-.801.322"/>
    </g>
</svg>
