<svg xmlns="http://www.w3.org/2000/svg" xmlns:xlink="http://www.w3.org/1999/xlink" width="33" height="38" viewBox="0 0 33 38">
    <defs>
        <path id="a" d="M.005 0h28.968v37.946H.005z"/>
    </defs>
    <g fill="none" fill-rule="evenodd">
        <mask id="b" fill="#fff">
            <use xlink:href="#a"/>
        </mask>
        <path fill="#C5CBD1" d="M19.6 10.349h7.669v6.037h1.704v-6.9a.896.896 0 0 0-.247-.612L20.205.25A.875.875 0 0 0 19.6 0H.852A.86.86 0 0 0 0 .862v36.222a.86.86 0 0 0 .852.862h17.043v-1.725H1.705V1.725h17.043v7.761a.86.86 0 0 0 .852.863z" mask="url(#b)"/>
        <path fill="#C5CBD1" d="M20.452 2.94l5.615 5.684h-5.615z" mask="url(#b)"/>
        <path fill="#ED7277" d="M27.25 28l5.659-5.659a.314.314 0 0 0 0-.442l-.808-.808a.315.315 0 0 0-.442 0L26 26.751l-5.659-5.66a.321.321 0 0 0-.441 0l-.808.808a.314.314 0 0 0 0 .442L24.751 28l-5.66 5.659a.313.313 0 0 0 0 .442l.808.808a.314.314 0 0 0 .441 0l5.66-5.66 5.66 5.66a.315.315 0 0 0 .441 0l.808-.808a.313.313 0 0 0 0-.442l-5.66-5.66z"/>
    </g>
</svg>
