<svg xmlns="http://www.w3.org/2000/svg" width="37" height="32" viewBox="0 0 37 32">
    <g fill="#50E3C2" fill-rule="nonzero">
        <path d="M16.025 26.025a3.5 3.5 0 1 0 4.947 4.95 3.5 3.5 0 0 0-4.947-4.95zM31.764 0l-5.956 5.84C16.92 3.404 6.977 5.604 0 12.443l3.004 2.947c5.232-5.13 12.449-7.148 19.246-6.061l-5.473 5.367c-3.572.4-7.034 1.939-9.768 4.619l2.528 2.48-7.172 7.032L5.6 32 35 3.173 31.764 0zM22 19.077A11.52 11.52 0 0 1 27.168 22L30 19.225A15.477 15.477 0 0 0 25.14 16L22 19.077zM32.739 9L30 11.731c1.56.861 3.027 1.95 4.35 3.269L37 12.356A23.247 23.247 0 0 0 32.739 9z"/>
    </g>
</svg>
