<svg xmlns="http://www.w3.org/2000/svg" width="31" height="38" viewBox="0 0 31 38">
    <g fill="#50E3C2" fill-rule="evenodd">
        <path fill-rule="nonzero" d="M30.1 11.88L16.6 5.113c-.3-.15-.9-.15-1.2 0L1.9 11.88c-.6.3-.9.752-.9 1.353V27.52c0 .601.3 1.203.9 1.353l13.5 6.015c.45.15.9.15 1.2 0l13.5-6.015c.6-.3.9-.752.9-1.353V13.233c0-.601-.3-1.053-.9-1.353zM16 8.12l10.2 5.113L16 18.346 5.8 13.233 16 8.12zM4 15.64l10.5 5.262v10.226L4 26.466V15.64zm13.5 15.638V21.053L28 15.789v10.828l-10.5 4.661z"/>
        <path stroke="#FFF" d="M21.158.782l3.429 2.06L3.985 37.128l-3.428-2.06z"/>
    </g>
</svg>
