<?xml version="1.0" standalone="no"?>
<!DOCTYPE svg PUBLIC "-//W3C//DTD SVG 20010904//EN"
 "http://www.w3.org/TR/2001/REC-SVG-20010904/DTD/svg10.dtd">
<svg version="1.0" xmlns="http://www.w3.org/2000/svg"
 width="960.000000pt" height="960.000000pt" viewBox="0 0 960.000000 960.000000"
 preserveAspectRatio="xMidYMid meet">
<metadata>
Created by potrace 1.11, written by Peter Selinger 2001-2013
</metadata>
<g transform="translate(0.000000,960.000000) scale(0.100000,-0.100000)"
fill="#000000" stroke="none">
<path d="M874 9544 c-262 -44 -506 -204 -658 -432 -61 -92 -102 -184 -135
-302 l-26 -95 0 -3905 0 -3905 27 -99 c101 -366 357 -617 738 -723 62 -17 234
-18 3980 -18 3746 0 3918 1 3980 18 354 98 607 329 718 653 56 163 52 -112 50
4109 l-3 3880 -22 77 c-98 344 -338 603 -653 707 -166 54 82 51 -4075 50
-3197 -1 -3854 -3 -3921 -15z m6366 -1024 c514 -63 911 -471 959 -984 37 -387
-153 -782 -480 -999 -203 -135 -463 -201 -695 -177 -266 28 -474 124 -665 307
l-86 83 -1419 0 c-1584 0 -1492 4 -1644 -71 -152 -75 -275 -224 -326 -394 -28
-92 -26 -277 4 -375 27 -88 82 -184 147 -257 59 -67 178 -146 263 -175 l67
-23 1455 -5 c1296 -5 1466 -8 1552 -23 408 -70 762 -245 1056 -522 284 -268
484 -637 557 -1030 38 -203 36 -504 -5 -717 -129 -667 -615 -1228 -1267 -1458
-106 -38 -215 -64 -354 -87 -93 -15 -259 -17 -1607 -20 l-1504 -4 -37 -47
c-87 -109 -214 -207 -363 -281 -299 -148 -689 -142 -978 16 -249 135 -436 356
-520 613 -57 175 -72 340 -45 507 60 368 269 651 600 814 252 123 552 142 828
52 82 -27 219 -101 297 -160 59 -45 174 -158 202 -200 l23 -33 1485 2 c1656 3
1505 -3 1660 72 89 42 223 176 267 266 89 179 95 423 15 594 -70 150 -215 279
-375 333 l-82 28 -1465 5 c-1587 6 -1510 4 -1730 60 -191 49 -402 142 -565
248 -433 281 -738 737 -846 1262 -22 103 -24 141 -24 365 0 224 2 262 24 365
170 828 823 1437 1651 1539 55 7 571 11 1507 11 l1422 0 45 63 c90 124 244
255 385 326 78 40 223 88 301 100 141 23 196 25 310 11z"/>
</g>
</svg>
