<svg id="Layer_1" data-name="Layer 1" xmlns="http://www.w3.org/2000/svg" viewBox="0 0 496.72 529.83"><defs><style>.cls-1{fill:#003666;}.cls-2{fill:#f69223;}</style></defs><title>S</title><path class="cls-1" d="M723.42,647.83a139.48,139.48,0,0,1-73.9,73.89,135.54,135.54,0,0,1-53.87,10.79H318.56V641.15H595.65q20.5,0,33.87-13.32T642.86,594q0-19.5-13.34-32.85t-33.87-13.35H410.92A135.16,135.16,0,0,1,357,537a133.32,133.32,0,0,1-43.63-29.77,143.58,143.58,0,0,1-29.24-44.12,140,140,0,0,1,0-107.76A135.53,135.53,0,0,1,357,282.49a135.16,135.16,0,0,1,53.88-10.78H689V363H410.92q-19.51,0-32.84,13.34t-13.34,32.85a46.31,46.31,0,0,0,13.34,33.35,43.85,43.85,0,0,0,32.84,13.85H595.65a135.25,135.25,0,0,1,53.87,10.77,144.36,144.36,0,0,1,44.14,29.24,133.63,133.63,0,0,1,29.76,43.61A140.18,140.18,0,0,1,723.42,647.83Z" transform="translate(-251.64 -235.09)"/><path class="cls-2" d="M748.36,313.51a78.43,78.43,0,1,1-78.44-78.42A78.43,78.43,0,0,1,748.36,313.51Z" transform="translate(-251.64 -235.09)"/><path class="cls-2" d="M408.49,686.46a78.43,78.43,0,1,1-78.42-78.41A78.44,78.44,0,0,1,408.49,686.46Z" transform="translate(-251.64 -235.09)"/></svg>