<svg xmlns="http://www.w3.org/2000/svg" width="116" height="101" viewBox="0 0 116 101">
    <g fill="none" fill-rule="evenodd">
        <path fill="#163955" fill-opacity=".149" d="M39.236 54.077c0-11.46 9.212-20.788 20.53-20.788 11.323 0 20.53 9.328 20.53 20.788a20.838 20.838 0 0 1-6.135 14.796c-.186.1-.362.22-.517.378a1.88 1.88 0 0 0-.284.366c-3.627 3.253-8.38 5.248-13.594 5.248-11.318 0-20.53-9.323-20.53-20.788zM59.766 29C46.11 29 35 40.25 35 54.077c0 13.828 11.111 25.077 24.766 25.077 5.782 0 11.11-2.022 15.33-5.4l26.288 26.617a2.097 2.097 0 0 0 2.995 0 2.161 2.161 0 0 0 0-3.031L78.185 70.816a25.121 25.121 0 0 0 6.346-16.739C84.531 40.251 73.421 29 59.766 29z"/>
        <path stroke="#163955" stroke-opacity=".149" stroke-width="3" d="M114.5 57.167V1.5H1.5v55.667h36.034l.176 1.299C39.252 69.88 49.038 78.5 60.667 78.5c11.628 0 21.414-8.619 22.957-20.034l.175-1.3H114.5z"/>
        <path fill="#BEC7D0" d="M14.876 17h11.248C27.157 17 28 16.101 28 15s-.843-2-1.876-2H14.876C13.843 13 13 13.899 13 15s.843 2 1.876 2zM38.08 21H14.932C13.868 21 13 21.896 13 23c0 1.101.868 2 1.931 2h23.15C39.144 25 40 24.101 40 23c0-1.104-.856-2-1.92-2z"/>
        <path fill="#163955" fill-opacity=".5" d="M62.178 54.76l7.985-7.787a1.134 1.134 0 0 0 0-1.634 1.21 1.21 0 0 0-1.679 0L60.5 53.125l-7.983-7.786a1.207 1.207 0 0 0-1.676 0 1.134 1.134 0 0 0 0 1.634l7.982 7.787-8.475 8.263a1.139 1.139 0 0 0 0 1.638 1.2 1.2 0 0 0 .84.339c.301 0 .605-.113.836-.339l8.476-8.267 8.478 8.267c.23.226.532.339.836.339a1.2 1.2 0 0 0 .84-.339 1.139 1.139 0 0 0 0-1.638l-8.475-8.263z"/>
    </g>
</svg>
