<?xml version="1.0" encoding="UTF-8"?>
<svg width="119px" height="120px" viewBox="0 0 119 120" version="1.1" xmlns="http://www.w3.org/2000/svg" xmlns:xlink="http://www.w3.org/1999/xlink">
    <!-- Generator: Sketch 49.3 (51167) - http://www.bohemiancoding.com/sketch -->
    <title>supplieson</title>
    <desc>Created with Sketch.</desc>
    <defs></defs>
    <g id="Page-1" stroke="none" stroke-width="1" fill="none" fill-rule="evenodd">
        <g id="supplieson">
            <rect id="Rectangle" fill="#FFFFFF" x="9" y="9" width="98" height="101"></rect>
            <path d="M97.81,85.3 C96.558,88.226 94.825,90.787 92.619,92.995 C90.408,95.204 87.844,96.933 84.921,98.187 C81.996,99.438 78.866,100.067 75.526,100.067 L27.202,100.067 L27.202,84.134 L75.526,84.134 C77.91,84.134 79.88,83.363 81.434,81.812 C82.982,80.262 83.76,78.294 83.76,75.906 C83.76,73.64 82.982,71.73 81.434,70.178 C79.88,68.624 77.91,67.85 75.526,67.85 L43.309,67.85 C39.966,67.85 36.835,67.225 33.913,65.971 C30.988,64.717 28.454,62.991 26.304,60.779 C24.157,58.574 22.458,56.009 21.206,53.084 C19.953,50.162 19.326,47.029 19.326,43.689 C19.326,40.35 19.953,37.217 21.206,34.291 C22.458,31.369 24.157,28.832 26.304,26.684 C28.454,24.537 30.988,22.834 33.913,21.585 C36.835,20.331 39.966,19.706 43.309,19.706 L91.813,19.706 L91.813,35.634 L43.309,35.634 C41.041,35.634 39.13,36.411 37.582,37.961 C36.029,39.51 35.256,41.423 35.256,43.689 C35.256,45.955 36.029,47.896 37.582,49.506 C39.13,51.112 41.041,51.922 43.309,51.922 L75.526,51.922 C78.866,51.922 81.996,52.547 84.921,53.801 C87.844,55.055 90.408,56.753 92.619,58.9 C94.825,61.047 96.558,63.586 97.81,66.507 C99.062,69.434 99.688,72.565 99.688,75.906 C99.688,79.246 99.062,82.378 97.81,85.3 Z M106.403,0.483 L12.612,0.483 C5.705,0.483 0.107,6.085 0.107,12.992 L0.107,106.78 C0.107,113.687 5.705,119.284 12.612,119.284 L106.403,119.284 C113.308,119.284 118.909,113.687 118.909,106.78 L118.909,12.992 C118.909,6.085 113.308,0.483 106.403,0.483 Z" id="Fill-1" fill="#003666" fill-rule="nonzero"></path>
            <path d="M102.159,26.994 C102.159,34.549 96.033,40.672 88.479,40.672 C80.925,40.672 74.803,34.549 74.803,26.994 C74.803,19.441 80.925,13.317 88.479,13.317 C96.033,13.317 102.159,19.441 102.159,26.994" id="Fill-2" fill="#EA8A32" fill-rule="nonzero"></path>
            <path d="M42.886,92.037 C42.886,99.594 36.762,105.719 29.209,105.719 C21.653,105.719 15.532,99.594 15.532,92.037 C15.532,84.483 21.653,78.363 29.209,78.363 C36.762,78.363 42.886,84.483 42.886,92.037" id="Fill-3" fill="#EA8A32" fill-rule="nonzero"></path>
        </g>
    </g>
</svg>