<svg xmlns="http://www.w3.org/2000/svg" xmlns:xlink="http://www.w3.org/1999/xlink" width="88" height="66" viewBox="0 0 88 66">
    <defs>
        <path id="a" d="M0 0h24v24H0z"/>
    </defs>
    <g fill="none" fill-rule="evenodd">
        <path fill="#D6DBE0" d="M44 58.972H5.883c6.904-5.45 22.462-17.817 30.456-24.801l2.157 1.898c1.52 1.351 3.51 2.03 5.504 2.03 1.993 0 3.987-.679 5.506-2.023L84.97 4.866v23.863c0 .835.681 1.514 1.52 1.514A1.51 1.51 0 0 0 88 28.729V1.514c0-.015 0-.023-.006-.038 0-.17-.03-.338-.089-.5-.007-.008-.015-.016-.015-.03-.015-.039-.046-.067-.066-.112a1.741 1.741 0 0 0-.222-.331 1.705 1.705 0 0 0-.438-.325c-.052-.023-.097-.053-.148-.066A1.37 1.37 0 0 0 86.49 0H1.52c-.194 0-.365.043-.534.112C.933.125.89.155.836.178.726.236.622.302.526.384.481.429.443.457.4.503.311.605.237.716.178.833.156.88.133.908.112.946c0 .015-.008.023-.015.03-.06.163-.09.331-.09.501 0 .015-.007.023-.007.038v58.987c.008.163.03.325.082.48.007.021.022.029.03.051.02.051.051.097.081.148.052.111.118.213.2.302.043.053.089.089.132.134.097.074.194.14.306.199.05.03.095.058.155.073.161.067.34.112.533.112H44c.838 0 1.52-.68 1.52-1.514s-.682-1.514-1.52-1.514zM3.038 57.363V4.865l31.005 27.29c-8.43 7.34-24.812 20.32-31.005 25.208zM82.473 3.028L47.49 33.81c-1.92 1.712-5.053 1.712-6.98 0l-3.008-2.645c-.006-.015-.006-.02-.013-.036-.038-.037-.082-.052-.12-.08L5.527 3.028h76.946z"/>
        <g transform="translate(61 42)">
            <mask id="b" fill="#fff">
                <use xlink:href="#a"/>
            </mask>
            <path fill="#50E3C2" d="M14.141 12l9.703-9.701a.538.538 0 0 0 0-.758L22.46.157a.54.54 0 0 0-.758 0L12 9.859 2.297.157a.55.55 0 0 0-.757 0L.156 1.54a.538.538 0 0 0 0 .758l9.703 9.7-9.703 9.702a.536.536 0 0 0 0 .757l1.384 1.385a.538.538 0 0 0 .757 0L12 14.141l9.702 9.702a.54.54 0 0 0 .758 0l1.384-1.385a.536.536 0 0 0 0-.757L14.14 12z" mask="url(#b)"/>
        </g>
    </g>
</svg>
