<?xml version="1.0" encoding="utf-8"?>
<!-- Generator: Adobe Illustrator 22.0.1, SVG Export Plug-In . SVG Version: 6.00 Build 0)  -->
<svg version="1.1" id="Layer_1" xmlns="http://www.w3.org/2000/svg" xmlns:xlink="http://www.w3.org/1999/xlink" x="0px" y="0px"
	 viewBox="0 0 100 100" style="enable-background:new 0 0 100 100;" xml:space="preserve">
<style type="text/css">
	.st0{fill:#C5CBD1;}
	.st1{fill:none;stroke:#C5CBD1;stroke-width:2;stroke-linecap:round;stroke-miterlimit:10;}
</style>
<title></title>
<g>
	<path class="st0" d="M70.3,65H53l-0.5,2h10.9v0.7c-2.6,0.6-4.3,3.1-3.8,5.8s3.1,4.3,5.8,3.8c2.6-0.6,4.3-3.1,3.8-5.8
		c-0.4-1.9-1.9-3.4-3.8-3.8V67h4.9c0.6,0,1-0.4,1-1S70.8,65,70.3,65z M67.3,72.5c0,1.6-1.3,2.9-2.9,2.9c-1.6,0-2.9-1.3-2.9-2.9
		c0-1.6,1.3-2.9,2.9-2.9C66,69.6,67.3,70.9,67.3,72.5z"/>
	<path class="st0" d="M37.3,67.8V67h11.2l0.5-2H30.7l-0.6-3.3h19.5l0.5-2H29.8l-4.1-23.4h29.9l0.5-2H25.3l-1-5.5
		c-0.1-0.4-0.4-0.8-0.9-0.8l-8-1c-0.6-0.1-1.1,0.3-1.1,0.9s0.3,1.1,0.9,1.1l7.3,0.9l6.3,36.3c0.1,0.5,0.5,0.8,1,0.8h5.4v0.7
		c-2.6,0.6-4.3,3.1-3.8,5.8c0.6,2.6,3.1,4.3,5.8,3.8c2.6-0.6,4.3-3.1,3.8-5.8C40.6,69.6,39.2,68.2,37.3,67.8z M36.2,75.4
		c-1.6,0-2.9-1.3-2.9-2.9c0-1.6,1.3-2.9,2.9-2.9c1.6,0,2.9,1.3,2.9,2.9C39.1,74.1,37.8,75.4,36.2,75.4z"/>
	<path class="st0" d="M75.8,34.7c-0.2-0.2-0.5-0.3-0.8-0.3H60.2l-0.5,2h14.2l-3.5,23.4H54.2l-0.5,2h17.5c0.5,0,0.9-0.4,1-0.8
		L76,35.5C76.1,35.2,76,34.9,75.8,34.7z"/>
</g>
<line class="st1" x1="61.5" y1="24.3" x2="49" y2="77.4"/>
</svg>
