<?xml version="1.0" encoding="utf-8"?>
<!-- Generator: Adobe Illustrator 22.0.1, SVG Export Plug-In . SVG Version: 6.00 Build 0)  -->
<svg version="1.1" id="Layer_1" xmlns="http://www.w3.org/2000/svg" xmlns:xlink="http://www.w3.org/1999/xlink" x="0px" y="0px"
	 viewBox="0 0 100 100" style="enable-background:new 0 0 100 100;" xml:space="preserve">
<style type="text/css">
	.st0{fill:#C5CBD1;}
	.st1{fill:#E16441;}
</style>
<title></title>
<path id="Cross" class="st0" d="M75.8,34.7c-0.2-0.2-0.5-0.4-0.8-0.3H25.3l-1-5.5c-0.1-0.4-0.4-0.8-0.9-0.8l-8-1
	c-0.6-0.1-1.1,0.3-1.1,0.9s0.3,1.1,0.9,1.1l7.3,0.9l6.3,36.3c0.1,0.5,0.5,0.8,1,0.8h5.4v0.7c-2.6,0.6-4.3,3.1-3.8,5.8
	s3.1,4.3,5.8,3.8s4.3-3.1,3.8-5.8c-0.4-1.9-1.9-3.4-3.8-3.8V67h26.2v0.7c-2.6,0.6-4.3,3.1-3.8,5.8s3.1,4.3,5.8,3.8
	c2.6-0.6,4.3-3.1,3.8-5.8c-0.4-1.9-1.9-3.4-3.8-3.8V67h4.9c0.6,0,1-0.4,1-1s-0.4-1-1-1H30.7l-0.6-3.3h41.2c0.5,0,0.9-0.4,1-0.8
	L76,35.5C76.1,35.2,76,34.9,75.8,34.7z M39.1,72.5c0,1.6-1.3,2.9-2.9,2.9s-2.9-1.3-2.9-2.9c0-1.6,1.3-2.9,2.9-2.9l0,0
	C37.8,69.6,39.1,70.9,39.1,72.5z M67.3,72.5c0,1.6-1.3,2.9-2.9,2.9c-1.6,0-2.9-1.3-2.9-2.9c0-1.6,1.3-2.9,2.9-2.9l0,0
	C66,69.6,67.3,70.9,67.3,72.5z M70.4,59.7H29.8l-4.1-23.4h48.2L70.4,59.7z"/>
<path class="st1" d="M45,44.3c-0.3-0.4-0.2-1.1,0.2-1.4c0.3-0.3,0.8-0.3,1.2,0l3.8,3.8l3.8-3.8c0.4-0.4,1-0.4,1.4,0
	c0.4,0.4,0.4,1,0,1.4l0,0L51.6,48l3.8,3.8c0.4,0.4,0.5,1,0.1,1.4s-1,0.5-1.4,0.1c0,0-0.1-0.1-0.1-0.1l-3.8-3.8l-3.8,3.8
	c-0.4,0.4-1.1,0.3-1.4-0.1c-0.3-0.4-0.3-0.9,0-1.3l3.8-3.8L45,44.3z"/>
</svg>
